<svg xmlns="http://www.w3.org/2000/svg" width="960" height="180" viewBox="0 0 960 180" role="img" aria-label="65 public GitHub contributions across 11 active days in the last 16 weeks, 2026-06-13 to 2026-10-02. 11 original public code repositories. Primary languages: Python 6, TypeScript 4, Jupyter Notebook 1."><title>65 public GitHub contributions across 11 active days in the last 16 weeks, 2026-06-13 to 2026-10-02. 11 original public code repositories. Primary languages: Python 6, TypeScript 4, Jupyter Notebook 1.</title><style>text{font-family:Arial,Helvetica,sans-serif}text[font-family]{font-family:Consolas,Menlo,monospace}</style><rect width="960" height="180" fill="#fafafa"/><text x="24" y="38" font-size="22" fill="#111" font-family="Consolas,Menlo,monospace">Public activity</text><text x="24" y="88" font-size="27" fill="#111" font-family="Consolas,Menlo,monospace">65 contributions</text><text x="24" y="121" font-size="19" fill="#555" font-family="Consolas,Menlo,monospace">Last 16 weeks</text><rect x="586" y="22" width="16" height="16" rx="1" fill="#e5e5e5"><title>2026-06-13: 0 contributions</title></rect><rect x="586" y="43" width="16" height="16" rx="1" fill="#e5e5e5"><title>2026-06-14: 0 contributions</title></rect><rect x="586" y="64" width="16" height="16" rx="1" fill="#e5e5e5"><title>2026-06-15: 0 contributions</title></rect><rect x="586" y="85" width="16" height="16" rx="1" fill="#e5e5e5"><title>2026-06-16: 0 contributions</title></rect><rect x="586" y="106" width="16" height="16" rx="1" fill="#e5e5e5"><title>2026-06-17: 0 contributions</title></rect><rect x="586" y="127" width="16" height="16" rx="1" fill="#e5e5e5"><title>2026-06-18: 0 contributions</title></rect><rect x="586" y="148" width="16" height="16" rx="1" fill="#e5e5e5"><title>2026-06-19: 0 contributions</title></rect><rect x="607" y="22" width="16" height="16" rx="1" fill="#e5e5e5"><title>2026-06-20: 0 contributions</title></rect><rect x="607" y="43" width="16" height="16" rx="1" fill="#e5e5e5"><title>2026-06-21: 0 contributions</title></rect><rect x="607" y="64" width="16" height="16" rx="1" fill="#e5e5e5"><title>2026-06-22: 0 contributions</title></rect><rect x="607" y="85" width="16" height="16" rx="1" fill="#b0b0b0"><title>2026-06-23: 1 contributions</title></rect><rect x="607" y="106" width="16" height="16" rx="1" fill="#e5e5e5"><title>2026-06-24: 0 contributions</title></rect><rect x="607" y="127" width="16" height="16" rx="1" fill="#e5e5e5"><title>2026-06-25: 0 contributions</title></rect><rect x="607" y="148" width="16" height="16" rx="1" fill="#e5e5e5"><title>2026-06-26: 0 contributions</title></rect><rect x="628" y="22" width="16" height="16" rx="1" fill="#e5e5e5"><title>2026-06-27: 0 contributions</title></rect><rect x="628" y="43" width="16" height="16" rx="1" fill="#e5e5e5"><title>2026-06-28: 0 contributions</title></rect><rect x="628" y="64" width="16" height="16" rx="1" fill="#e5e5e5"><title>2026-06-29: 0 contributions</title></rect><rect x="628" y="85" width="16" height="16" rx="1" fill="#e5e5e5"><title>2026-06-30: 0 contributions</title></rect><rect x="628" y="106" width="16" height="16" rx="1" fill="#e5e5e5"><title>2026-07-01: 0 contributions</title></rect><rect x="628" y="127" width="16" height="16" rx="1" fill="#e5e5e5"><title>2026-07-02: 0 contributions</title></rect><rect x="628" y="148" width="16" height="16" rx="1" fill="#e5e5e5"><title>2026-07-03: 0 contributions</title></rect><rect x="649" y="22" width="16" height="16" rx="1" fill="#e5e5e5"><title>2026-07-04: 0 contributions</title></rect><rect x="649" y="43" width="16" height="16" rx="1" fill="#e5e5e5"><title>2026-07-05: 0 contributions</title></rect><rect x="649" y="64" width="16" height="16" rx="1" fill="#e5e5e5"><title>2026-07-06: 0 contributions</title></rect><rect x="649" y="85" width="16" height="16" rx="1" fill="#b0b0b0"><title>2026-07-07: 1 contributions</title></rect><rect x="649" y="106" width="16" height="16" rx="1" fill="#e5e5e5"><title>2026-07-08: 0 contributions</title></rect><rect x="649" y="127" width="16" height="16" rx="1" fill="#e5e5e5"><title>2026-07-09: 0 contributions</title></rect><rect x="649" y="148" width="16" height="16" rx="1" fill="#e5e5e5"><title>2026-07-10: 0 contributions</title></rect><rect x="670" y="22" width="16" height="16" rx="1" fill="#e5e5e5"><title>2026-07-11: 0 contributions</title></rect><rect x="670" y="43" width="16" height="16" rx="1" fill="#e5e5e5"><title>2026-07-12: 0 contributions</title></rect><rect x="670" y="64" width="16" height="16" rx="1" fill="#e5e5e5"><title>2026-07-13: 0 contributions</title></rect><rect x="670" y="85" width="16" height="16" rx="1" fill="#e5e5e5"><title>2026-07-14: 0 contributions</title></rect><rect x="670" y="106" width="16" height="16" rx="1" fill="#e5e5e5"><title>2026-07-15: 0 contributions</title></rect><rect x="670" y="127" width="16" height="16" rx="1" fill="#e5e5e5"><title>2026-07-16: 0 contributions</title></rect><rect x="670" y="148" width="16" height="16" rx="1" fill="#e5e5e5"><title>2026-07-17: 0 contributions</title></rect><rect x="691" y="22" width="16" height="16" rx="1" fill="#e5e5e5"><title>2026-07-18: 0 contributions</title></rect><rect x="691" y="43" width="16" height="16" rx="1" fill="#e5e5e5"><title>2026-07-19: 0 contributions</title></rect><rect x="691" y="64" width="16" height="16" rx="1" fill="#e5e5e5"><title>2026-07-20: 0 contributions</title></rect><rect x="691" y="85" width="16" height="16" rx="1" fill="#e5e5e5"><title>2026-07-21: 0 contributions</title></rect><rect x="691" y="106" width="16" height="16" rx="1" fill="#e5e5e5"><title>2026-07-22: 0 contributions</title></rect><rect x="691" y="127" width="16" height="16" rx="1" fill="#e5e5e5"><title>2026-07-23: 0 contributions</title></rect><rect x="691" y="148" width="16" height="16" rx="1" fill="#e5e5e5"><title>2026-07-24: 0 contributions</title></rect><rect x="712" y="22" width="16" height="16" rx="1" fill="#e5e5e5"><title>2026-07-25: 0 contributions</title></rect><rect x="712" y="43" width="16" height="16" rx="1" fill="#e5e5e5"><title>2026-07-26: 0 contributions</title></rect><rect x="712" y="64" width="16" height="16" rx="1" fill="#e5e5e5"><title>2026-07-27: 0 contributions</title></rect><rect x="712" y="85" width="16" height="16" rx="1" fill="#e5e5e5"><title>2026-07-28: 0 contributions</title></rect><rect x="712" y="106" width="16" height="16" rx="1" fill="#e5e5e5"><title>2026-07-29: 0 contributions</title></rect><rect x="712" y="127" width="16" height="16" rx="1" fill="#e5e5e5"><title>2026-07-30: 0 contributions</title></rect><rect x="712" y="148" width="16" height="16" rx="1" fill="#e5e5e5"><title>2026-07-31: 0 contributions</title></rect><rect x="733" y="22" width="16" height="16" rx="1" fill="#e5e5e5"><title>2026-08-01: 0 contributions</title></rect><rect x="733" y="43" width="16" height="16" rx="1" fill="#e5e5e5"><title>2026-08-02: 0 contributions</title></rect><rect x="733" y="64" width="16" height="16" rx="1" fill="#e5e5e5"><title>2026-08-03: 0 contributions</title></rect><rect x="733" y="85" width="16" height="16" rx="1" fill="#e5e5e5"><title>2026-08-04: 0 contributions</title></rect><rect x="733" y="106" width="16" height="16" rx="1" fill="#e5e5e5"><title>2026-08-05: 0 contributions</title></rect><rect x="733" y="127" width="16" height="16" rx="1" fill="#e5e5e5"><title>2026-08-06: 0 contributions</title></rect><rect x="733" y="148" width="16" height="16" rx="1" fill="#b0b0b0"><title>2026-08-07: 1 contributions</title></rect><rect x="754" y="22" width="16" height="16" rx="1" fill="#e5e5e5"><title>2026-08-08: 0 contributions</title></rect><rect x="754" y="43" width="16" height="16" rx="1" fill="#e5e5e5"><title>2026-08-09: 0 contributions</title></rect><rect x="754" y="64" width="16" height="16" rx="1" fill="#e5e5e5"><title>2026-08-10: 0 contributions</title></rect><rect x="754" y="85" width="16" height="16" rx="1" fill="#e5e5e5"><title>2026-08-11: 0 contributions</title></rect><rect x="754" y="106" width="16" height="16" rx="1" fill="#e5e5e5"><title>2026-08-12: 0 contributions</title></rect><rect x="754" y="127" width="16" height="16" rx="1" fill="#e5e5e5"><title>2026-08-13: 0 contributions</title></rect><rect x="754" y="148" width="16" height="16" rx="1" fill="#e5e5e5"><title>2026-08-14: 0 contributions</title></rect><rect x="775" y="22" width="16" height="16" rx="1" fill="#e5e5e5"><title>2026-08-15: 0 contributions</title></rect><rect x="775" y="43" width="16" height="16" rx="1" fill="#e5e5e5"><title>2026-08-16: 0 contributions</title></rect><rect x="775" y="64" width="16" height="16" rx="1" fill="#e5e5e5"><title>2026-08-17: 0 contributions</title></rect><rect x="775" y="85" width="16" height="16" rx="1" fill="#e5e5e5"><title>2026-08-18: 0 contributions</title></rect><rect x="775" y="106" width="16" height="16" rx="1" fill="#e5e5e5"><title>2026-08-19: 0 contributions</title></rect><rect x="775" y="127" width="16" height="16" rx="1" fill="#e5e5e5"><title>2026-08-20: 0 contributions</title></rect><rect x="775" y="148" width="16" height="16" rx="1" fill="#e5e5e5"><title>2026-08-21: 0 contributions</title></rect><rect x="796" y="22" width="16" height="16" rx="1" fill="#e5e5e5"><title>2026-08-22: 0 contributions</title></rect><rect x="796" y="43" width="16" height="16" rx="1" fill="#e5e5e5"><title>2026-08-23: 0 contributions</title></rect><rect x="796" y="64" width="16" height="16" rx="1" fill="#e5e5e5"><title>2026-08-24: 0 contributions</title></rect><rect x="796" y="85" width="16" height="16" rx="1" fill="#e5e5e5"><title>2026-08-25: 0 contributions</title></rect><rect x="796" y="106" width="16" height="16" rx="1" fill="#e5e5e5"><title>2026-08-26: 0 contributions</title></rect><rect x="796" y="127" width="16" height="16" rx="1" fill="#e5e5e5"><title>2026-08-27: 0 contributions</title></rect><rect x="796" y="148" width="16" height="16" rx="1" fill="#e5e5e5"><title>2026-08-28: 0 contributions</title></rect><rect x="817" y="22" width="16" height="16" rx="1" fill="#e5e5e5"><title>2026-08-29: 0 contributions</title></rect><rect x="817" y="43" width="16" height="16" rx="1" fill="#e5e5e5"><title>2026-08-30: 0 contributions</title></rect><rect x="817" y="64" width="16" height="16" rx="1" fill="#e5e5e5"><title>2026-08-31: 0 contributions</title></rect><rect x="817" y="85" width="16" height="16" rx="1" fill="#e5e5e5"><title>2026-09-01: 0 contributions</title></rect><rect x="817" y="106" width="16" height="16" rx="1" fill="#e5e5e5"><title>2026-09-02: 0 contributions</title></rect><rect x="817" y="127" width="16" height="16" rx="1" fill="#e5e5e5"><title>2026-09-03: 0 contributions</title></rect><rect x="817" y="148" width="16" height="16" rx="1" fill="#e5e5e5"><title>2026-09-04: 0 contributions</title></rect><rect x="838" y="22" width="16" height="16" rx="1" fill="#e5e5e5"><title>2026-09-05: 0 contributions</title></rect><rect x="838" y="43" width="16" height="16" rx="1" fill="#e5e5e5"><title>2026-09-06: 0 contributions</title></rect><rect x="838" y="64" width="16" height="16" rx="1" fill="#e5e5e5"><title>2026-09-07: 0 contributions</title></rect><rect x="838" y="85" width="16" height="16" rx="1" fill="#e5e5e5"><title>2026-09-08: 0 contributions</title></rect><rect x="838" y="106" width="16" height="16" rx="1" fill="#e5e5e5"><title>2026-09-09: 0 contributions</title></rect><rect x="838" y="127" width="16" height="16" rx="1" fill="#e5e5e5"><title>2026-09-10: 0 contributions</title></rect><rect x="838" y="148" width="16" height="16" rx="1" fill="#e5e5e5"><title>2026-09-11: 0 contributions</title></rect><rect x="859" y="22" width="16" height="16" rx="1" fill="#e5e5e5"><title>2026-09-12: 0 contributions</title></rect><rect x="859" y="43" width="16" height="16" rx="1" fill="#e5e5e5"><title>2026-09-13: 0 contributions</title></rect><rect x="859" y="64" width="16" height="16" rx="1" fill="#e5e5e5"><title>2026-09-14: 0 contributions</title></rect><rect x="859" y="85" width="16" height="16" rx="1" fill="#e5e5e5"><title>2026-09-15: 0 contributions</title></rect><rect x="859" y="106" width="16" height="16" rx="1" fill="#808080"><title>2026-09-16: 5 contributions</title></rect><rect x="859" y="127" width="16" height="16" rx="1" fill="#171717"><title>2026-09-17: 18 contributions</title></rect><rect x="859" y="148" width="16" height="16" rx="1" fill="#171717"><title>2026-09-18: 16 contributions</title></rect><rect x="880" y="22" width="16" height="16" rx="1" fill="#171717"><title>2026-09-19: 14 contributions</title></rect><rect x="880" y="43" width="16" height="16" rx="1" fill="#e5e5e5"><title>2026-09-20: 0 contributions</title></rect><rect x="880" y="64" width="16" height="16" rx="1" fill="#e5e5e5"><title>2026-09-21: 0 contributions</title></rect><rect x="880" y="85" width="16" height="16" rx="1" fill="#e5e5e5"><title>2026-09-22: 0 contributions</title></rect><rect x="880" y="106" width="16" height="16" rx="1" fill="#808080"><title>2026-09-23: 6 contributions</title></rect><rect x="880" y="127" width="16" height="16" rx="1" fill="#b0b0b0"><title>2026-09-24: 1 contributions</title></rect><rect x="880" y="148" width="16" height="16" rx="1" fill="#e5e5e5"><title>2026-09-25: 0 contributions</title></rect><rect x="901" y="22" width="16" height="16" rx="1" fill="#e5e5e5"><title>2026-09-26: 0 contributions</title></rect><rect x="901" y="43" width="16" height="16" rx="1" fill="#e5e5e5"><title>2026-09-27: 0 contributions</title></rect><rect x="901" y="64" width="16" height="16" rx="1" fill="#e5e5e5"><title>2026-09-28: 0 contributions</title></rect><rect x="901" y="85" width="16" height="16" rx="1" fill="#e5e5e5"><title>2026-09-29: 0 contributions</title></rect><rect x="901" y="106" width="16" height="16" rx="1" fill="#b0b0b0"><title>2026-09-30: 1 contributions</title></rect><rect x="901" y="127" width="16" height="16" rx="1" fill="#e5e5e5"><title>2026-10-01: 0 contributions</title></rect><rect x="901" y="148" width="16" height="16" rx="1" fill="#b0b0b0"><title>2026-10-02: 1 contributions</title></rect><text x="24" y="154" font-size="18" fill="#555" font-family="Consolas,Menlo,monospace">Updated 2026-10-02</text></svg>
